<?xml version="1.0" standalone="no"?>
<!DOCTYPE svg PUBLIC "-//W3C//DTD SVG 20010904//EN"
 "http://www.w3.org/TR/2001/REC-SVG-20010904/DTD/svg10.dtd">
<svg version="1.0" xmlns="http://www.w3.org/2000/svg"
 width="940.000000pt" height="940.000000pt" viewBox="0 0 940.000000 940.000000"
 preserveAspectRatio="xMidYMid meet">
<metadata>
Created by potrace 1.14, written by Peter Selinger 2001-2017
</metadata>
<g transform="translate(0.000000,940.000000) scale(0.100000,-0.100000)"
fill="#000000" stroke="none">
<path d="M3753 8585 c-35 -8 -75 -21 -90 -29 -16 -7 -57 -22 -93 -31 -135 -37
-286 -119 -396 -216 -75 -66 -170 -135 -250 -183 -32 -19 -87 -62 -121 -95
-35 -33 -75 -67 -90 -75 -31 -16 -142 -130 -187 -191 -15 -22 -41 -53 -57 -70
-27 -29 -64 -90 -137 -225 -19 -36 -55 -94 -80 -130 -58 -82 -124 -209 -147
-280 -10 -30 -24 -64 -31 -75 -26 -40 -57 -134 -102 -305 -42 -161 -46 -188
-52 -340 -4 -91 -13 -183 -20 -205 -9 -29 -14 -163 -17 -473 l-5 -434 -48 -53
c-61 -68 -72 -101 -77 -252 -4 -103 -2 -131 13 -175 23 -64 99 -149 157 -176
24 -11 73 -41 109 -66 80 -54 125 -78 198 -101 30 -10 68 -26 85 -37 16 -10
39 -18 49 -18 21 0 64 -12 142 -42 38 -14 71 -39 123 -92 86 -89 195 -187 225
-203 12 -6 47 -28 76 -47 30 -20 60 -36 66 -36 6 0 19 -9 30 -21 10 -12 37
-30 59 -41 22 -11 49 -28 60 -38 63 -58 307 -149 480 -180 78 -14 333 -50 411
-59 69 -7 90 -20 99 -61 4 -16 20 -64 37 -107 38 -100 52 -278 24 -330 -9 -18
-20 -34 -25 -38 -12 -7 -192 59 -239 87 -27 17 -49 20 -128 19 -87 -1 -99 -3
-157 -35 -127 -69 -184 -108 -261 -178 -118 -107 -337 -270 -450 -335 -33 -19
-66 -42 -73 -52 -7 -10 -27 -24 -45 -31 -18 -7 -49 -29 -69 -48 -43 -40 -150
-117 -233 -167 -32 -20 -79 -53 -105 -74 -25 -21 -57 -44 -71 -51 -29 -15 -78
-54 -159 -125 -32 -27 -91 -79 -132 -115 -156 -135 -274 -262 -308 -330 -40
-78 -91 -231 -91 -268 1 -40 33 -103 73 -141 29 -27 57 -40 149 -65 l113 -31
1100 -7 c605 -4 1206 -10 1335 -13 234 -6 322 -1 515 31 50 8 160 19 245 25
184 12 1078 17 1270 7 227 -13 856 -12 945 1 185 28 223 34 290 47 136 26 205
59 249 117 91 122 118 324 56 420 -11 18 -28 45 -37 61 -10 16 -36 52 -59 80
-22 28 -51 67 -65 86 -13 20 -78 87 -144 150 -66 63 -131 129 -145 145 -40 47
-180 180 -235 223 -27 22 -61 52 -75 67 -14 15 -43 36 -65 47 -22 11 -49 28
-60 38 -29 25 -143 84 -193 100 -39 12 -163 73 -452 221 -52 27 -115 55 -140
63 -25 7 -68 27 -95 43 -112 66 -426 213 -483 227 -33 8 -65 17 -71 21 -6 3
-75 6 -152 6 -170 -1 -203 -12 -268 -89 -23 -29 -48 -52 -54 -52 -14 0 -47 48
-72 103 -14 31 -17 57 -13 155 3 64 9 125 13 135 5 12 19 17 47 17 22 0 57 9
77 19 20 11 63 29 96 41 33 11 76 29 95 39 19 10 51 22 70 26 40 9 122 52 198
104 29 20 65 43 80 51 15 8 29 17 32 20 3 3 34 28 70 55 85 64 208 183 227
218 8 16 30 49 48 73 19 24 48 73 64 108 34 69 30 67 171 96 100 21 193 63
305 138 95 64 143 115 185 196 35 68 35 68 33 192 -2 139 -11 177 -60 248 -18
26 -30 52 -27 58 3 5 32 21 65 35 57 25 59 26 103 117 77 159 79 166 73 269
-3 50 -17 169 -32 262 -15 94 -29 208 -31 255 -2 47 -11 126 -19 175 -8 50
-20 131 -26 180 -6 50 -19 117 -29 150 -10 33 -21 82 -25 109 -4 26 -17 80
-30 120 -12 39 -28 114 -35 166 -13 104 -46 212 -92 305 -55 109 -251 389
-309 442 -21 19 -48 50 -59 68 -17 27 -28 33 -65 37 -38 5 -56 16 -122 76 -43
38 -98 79 -123 91 -25 11 -63 39 -86 60 -22 22 -67 51 -100 66 -32 14 -70 36
-84 49 -32 29 -119 77 -190 103 -59 22 -234 63 -272 63 -13 0 -68 12 -123 26
-104 26 -218 38 -535 54 -119 6 -205 15 -240 26 -77 23 -604 30 -697 9z m7
-2455 c0 -9 4 -20 9 -25 5 -6 19 -35 31 -65 12 -30 43 -78 68 -106 26 -28 65
-72 86 -97 22 -25 52 -51 68 -58 81 -33 305 50 382 142 31 36 45 36 80 1 15
-16 49 -39 76 -52 l49 -23 54 27 54 26 58 -26 c34 -16 82 -28 119 -31 55 -4
66 -2 106 25 46 30 43 26 158 261 10 19 22 32 27 30 6 -2 20 -33 31 -69 49
-150 79 -196 164 -249 103 -66 206 -76 257 -25 31 31 35 30 58 -8 47 -81 172
-186 265 -223 25 -10 74 -21 110 -24 l65 -6 49 -95 49 -95 6 -236 6 -236 28
-42 c15 -23 39 -47 54 -54 23 -10 28 -8 54 21 16 18 29 41 29 51 0 23 28 91
45 111 7 8 30 47 51 85 45 85 47 87 106 109 51 19 63 16 126 -31 74 -55 111
-202 77 -305 -20 -62 -31 -75 -107 -134 -101 -76 -205 -119 -317 -130 -36 -4
-77 -13 -91 -20 -46 -23 -128 -119 -168 -195 -36 -71 -74 -125 -154 -225 -30
-37 -129 -117 -253 -204 -48 -35 -251 -140 -268 -140 -5 0 -23 -6 -40 -14
-101 -44 -148 -59 -225 -72 -47 -9 -93 -19 -101 -23 -24 -13 -650 -22 -781
-12 -63 5 -142 16 -175 25 -33 8 -123 22 -200 31 -186 20 -300 40 -354 59 -24
9 -54 16 -68 16 -13 0 -54 15 -91 34 -37 19 -83 42 -102 51 -40 18 -134 75
-170 103 -14 10 -45 29 -70 42 -25 12 -63 37 -85 55 -22 18 -53 39 -70 48 -35
18 -224 206 -257 256 -17 26 -35 38 -68 47 -25 7 -63 21 -85 33 -27 14 -58 21
-96 21 -99 0 -269 50 -368 108 -58 34 -125 104 -152 160 -19 38 -20 53 -14
127 7 89 13 101 87 183 48 53 89 74 140 70 38 -3 42 -6 53 -43 6 -22 19 -52
27 -65 9 -14 19 -38 22 -54 4 -17 15 -41 25 -55 10 -14 29 -53 42 -86 16 -39
41 -77 74 -109 66 -65 102 -86 149 -86 67 0 93 43 61 100 -9 15 -14 54 -15 99
0 64 4 80 28 120 59 97 91 228 99 406 8 202 22 223 159 245 80 13 154 51 177
93 15 25 21 28 45 22 15 -4 78 -9 141 -12 133 -6 176 3 229 51 48 43 74 56
110 56 93 0 172 133 173 295 1 28 3 54 6 58 7 12 43 -23 43 -43z m1230 -2735
l0 -173 35 -52 c37 -55 41 -65 25 -75 -12 -7 -132 -31 -255 -51 -114 -18 -484
-29 -505 -15 -12 8 -11 18 10 68 20 46 25 75 25 143 -1 121 -7 181 -21 210 -7
14 -15 45 -19 70 l-7 45 356 2 356 2 0 -174z m739 -221 c36 -13 67 -24 69 -24
1 0 1 -237 0 -527 l-3 -528 -110 1 -110 1 -6 444 c-3 264 -11 482 -18 539 -12
93 -12 95 10 113 27 22 68 17 168 -19z m-1993 -159 c3 -8 0 -85 -6 -172 -7
-87 -14 -266 -16 -398 -2 -132 -7 -285 -11 -340 l-8 -100 -120 0 -120 0 2 254
c2 193 6 272 19 328 12 55 15 108 12 205 l-4 131 71 45 c38 25 81 48 95 53 42
12 80 10 86 -6z m1744 -950 c0 -8 -1 -16 -2 -17 -1 -2 4 -13 10 -25 16 -30 63
-40 208 -47 137 -5 158 1 172 57 7 26 14 33 38 35 34 5 157 -14 232 -35 49
-14 55 -19 73 -60 17 -41 19 -71 19 -358 0 -172 -3 -320 -6 -329 -5 -14 -50
-16 -372 -16 -429 0 -805 -14 -846 -30 -51 -19 -49 4 4 59 28 29 62 70 76 93
24 37 25 46 19 117 -8 92 -48 188 -92 219 -16 11 -61 33 -99 48 -98 39 -208
38 -296 -1 -35 -15 -70 -34 -80 -42 -14 -13 -19 -13 -40 1 -23 15 -26 14 -51
-12 -38 -39 -77 -161 -77 -239 0 -77 40 -170 94 -222 20 -19 36 -39 36 -43 0
-4 -272 -8 -604 -8 l-604 0 -6 98 c-6 95 -15 166 -36 287 -13 75 -25 315 -17
347 4 14 19 29 39 37 73 30 102 40 110 35 4 -3 8 -26 8 -52 0 -77 0 -77 171
-80 83 -2 161 -1 173 2 27 7 46 56 46 118 l0 45 48 8 c26 4 403 11 837 14 435
4 796 8 803 9 6 1 12 -5 12 -13z m-573 -368 c12 -11 12 -22 2 -60 -6 -26 -17
-47 -24 -47 -8 0 -24 19 -37 42 -15 26 -34 45 -52 51 -26 9 -32 6 -53 -17 -26
-31 -31 -91 -10 -121 16 -21 37 -12 37 16 0 10 7 19 15 19 8 0 15 -6 15 -13 0
-8 9 -22 20 -32 26 -23 26 -51 -1 -65 -11 -7 -29 -20 -40 -31 -50 -50 -134
-59 -248 -27 -61 18 -90 48 -91 93 0 24 13 41 68 90 66 60 137 107 177 118 39
11 207 -1 222 -16z m-2640 -33 c-28 -15 -29 -38 -2 -27 10 3 15 -1 15 -15 0
-13 -9 -22 -25 -26 -31 -8 -69 10 -61 29 3 8 1 17 -4 20 -6 4 -10 13 -10 21 0
11 14 14 58 14 56 -1 57 -1 29 -16z m2751 -137 c4 -65 5 -61 -57 -138 -31 -39
-123 -97 -180 -115 -70 -21 -159 -18 -200 7 -18 11 -30 23 -26 27 3 4 38 5 76
3 45 -2 94 3 135 15 56 15 71 24 120 77 59 63 93 124 94 168 0 14 3 29 7 33
15 14 27 -17 31 -77z m-2886 46 c30 -29 37 -63 13 -63 -8 0 -15 4 -15 9 0 5
-12 11 -26 13 -35 4 -53 31 -35 52 19 22 31 20 63 -11z m-93 -79 c2 -2 -2 -10
-8 -18 -10 -11 -9 -16 5 -24 26 -14 9 -29 -32 -28 -32 2 -39 6 -47 29 -13 39
5 58 46 50 18 -3 34 -7 36 -9z m-123 -82 c35 -29 38 -57 10 -76 -33 -21 -48
-20 -74 4 -28 27 -28 36 4 65 32 29 33 30 60 7z"/>
<path d="M5220 5645 c-67 -15 -120 -41 -120 -60 0 -9 17 -15 53 -19 97 -10
564 -13 581 -4 23 13 20 45 -6 59 -69 37 -383 52 -508 24z"/>
<path d="M3489 5610 c-15 -4 -66 -13 -115 -19 -152 -21 -264 -77 -264 -133 0
-33 20 -36 90 -14 107 34 169 50 220 57 147 21 261 30 322 25 37 -3 69 -2 72
3 14 23 -11 42 -86 66 -81 25 -184 32 -239 15z"/>
<path d="M5332 5370 c-19 -4 -46 -19 -60 -33 -15 -13 -40 -35 -55 -48 -41 -34
-80 -123 -85 -191 -7 -100 9 -142 119 -296 44 -61 93 -83 193 -85 92 -2 98 0
185 79 62 56 101 129 101 190 0 23 -9 78 -20 122 -21 83 -20 88 13 159 14 30
2 41 -21 20 -26 -24 -33 -21 -26 8 7 29 -2 32 -26 10 -16 -14 -23 -12 -76 24
-52 35 -67 40 -134 44 -41 3 -90 2 -108 -3z m68 -85 c7 -8 18 -15 25 -15 7 0
24 -9 39 -21 29 -23 35 -68 13 -91 -7 -7 -17 -29 -23 -48 -9 -32 -13 -35 -49
-36 -22 0 -52 -4 -68 -8 -34 -10 -53 4 -60 47 -3 18 -9 45 -13 61 -6 24 -2 33
27 61 19 18 40 40 47 49 16 20 46 21 62 1z"/>
<path d="M3442 5313 c-29 -15 -61 -35 -72 -45 -13 -13 -28 -17 -41 -13 -18 6
-19 5 -10 -13 15 -27 14 -32 -4 -32 -9 0 -27 12 -40 28 -23 26 -24 26 -25 5 0
-12 9 -42 20 -68 15 -34 20 -69 20 -131 0 -72 4 -93 30 -147 30 -65 91 -137
146 -175 19 -13 55 -24 96 -28 58 -6 72 -3 124 20 75 34 110 68 140 133 51
110 23 265 -68 380 -88 112 -205 144 -316 86z m179 -99 c7 -8 29 -24 50 -34
20 -11 39 -26 43 -35 11 -28 7 -62 -9 -75 -8 -7 -15 -22 -15 -34 0 -41 -15
-49 -85 -51 -72 -1 -101 13 -92 46 3 10 -4 28 -14 40 -10 12 -19 25 -19 29 0
15 42 60 56 60 8 0 17 8 21 18 7 21 33 52 43 52 4 0 13 -7 21 -16z"/>
<path d="M4327 4763 c-15 -2 -32 -14 -38 -25 -10 -19 -7 -26 28 -57 82 -73
126 -104 174 -122 60 -23 92 -24 151 -4 40 14 67 33 176 125 12 10 22 25 22
34 0 22 -57 49 -91 42 -35 -7 -103 -48 -144 -87 l-31 -29 -69 51 c-66 49 -125
81 -142 78 -4 -1 -20 -4 -36 -6z"/>
<path d="M5623 2263 c-13 -33 -13 -41 -1 -63 30 -53 78 -32 78 34 0 74 -50 92
-77 29z"/>
<path d="M3546 2201 c-17 -36 -17 -41 -2 -70 13 -24 23 -31 45 -31 45 0 69 48
50 98 -22 57 -69 58 -93 3z"/>
<path d="M4540 1580 c-27 -27 -28 -105 -2 -119 14 -7 25 -6 41 6 17 12 28 13
45 5 15 -6 28 -7 40 0 35 20 3 74 -68 115 -28 17 -33 16 -56 -7z"/>
<path d="M1860 1372 c0 -20 25 -36 41 -26 12 7 12 34 0 34 -5 0 -16 3 -25 6
-11 4 -16 0 -16 -14z"/>
</g>
</svg>
