<?xml version="1.0" standalone="no"?>
<!DOCTYPE svg PUBLIC "-//W3C//DTD SVG 20010904//EN"
 "http://www.w3.org/TR/2001/REC-SVG-20010904/DTD/svg10.dtd">
<svg version="1.0" xmlns="http://www.w3.org/2000/svg"
 width="4535.000000pt" height="4535.000000pt" viewBox="0 0 4535.000000 4535.000000"
 preserveAspectRatio="xMidYMid meet">
<metadata>
Created by potrace 1.14, written by Peter Selinger 2001-2017
</metadata>
<g transform="translate(0.000000,4535.000000) scale(0.100000,-0.100000)"
fill="#000000" stroke="none">
<path d="M18605 41488 c-178 -7 -395 -44 -473 -80 -33 -15 -80 -24 -157 -30
-72 -6 -122 -15 -145 -27 -19 -10 -58 -30 -87 -44 -28 -15 -72 -31 -97 -36
-24 -4 -64 -22 -87 -40 -24 -17 -52 -31 -63 -31 -21 0 -307 -83 -325 -94 -5
-3 -56 -15 -113 -27 -113 -22 -299 -91 -375 -139 -76 -47 -185 -100 -208 -100
-11 0 -29 -6 -40 -14 -11 -7 -36 -17 -55 -21 -47 -10 -101 -38 -125 -65 -11
-12 -60 -43 -110 -67 -49 -25 -108 -58 -130 -73 -22 -15 -58 -35 -80 -44 -22
-10 -51 -28 -65 -41 -14 -13 -52 -36 -85 -51 -99 -44 -205 -129 -220 -175 -3
-8 -22 -23 -42 -33 -20 -10 -62 -42 -92 -71 -31 -30 -94 -89 -141 -132 -47
-42 -107 -101 -134 -130 -31 -35 -78 -69 -135 -100 -47 -26 -104 -64 -126 -85
-23 -20 -65 -46 -95 -58 -40 -15 -80 -44 -144 -105 -81 -76 -320 -247 -406
-290 -19 -10 -48 -27 -65 -39 -16 -12 -46 -28 -65 -36 -19 -8 -62 -30 -95 -50
-33 -20 -81 -49 -107 -64 -27 -15 -99 -77 -161 -139 -62 -62 -129 -124 -148
-139 -113 -88 -167 -138 -216 -198 -58 -70 -244 -215 -315 -245 -20 -8 -69
-41 -109 -73 -102 -82 -363 -340 -383 -379 -9 -18 -30 -43 -47 -55 -17 -13
-46 -44 -64 -69 -19 -27 -55 -59 -87 -77 -64 -37 -78 -52 -103 -112 -25 -60
-76 -131 -147 -207 -32 -34 -58 -67 -58 -74 0 -15 -71 -101 -121 -146 -43 -39
-167 -203 -251 -333 -34 -52 -72 -111 -84 -130 -13 -19 -30 -53 -39 -75 -50
-122 -134 -263 -199 -333 -34 -37 -45 -57 -51 -97 -8 -55 -18 -78 -74 -165
-21 -33 -42 -72 -46 -87 -7 -28 -115 -213 -146 -248 -9 -11 -27 -40 -39 -64
-12 -23 -40 -66 -63 -95 -23 -29 -62 -84 -87 -124 -50 -81 -181 -266 -210
-297 -20 -22 -164 -296 -175 -335 -5 -14 -27 -56 -50 -95 -23 -38 -57 -99 -75
-135 -19 -36 -54 -101 -79 -145 -45 -81 -161 -399 -186 -512 -16 -70 -24 -88
-111 -235 -35 -59 -66 -120 -70 -135 -3 -15 -17 -53 -30 -83 -58 -139 -155
-393 -180 -470 -14 -47 -34 -103 -44 -125 -9 -22 -23 -91 -29 -154 -8 -76 -23
-148 -46 -217 -18 -56 -43 -147 -55 -201 -11 -54 -30 -125 -40 -158 -11 -33
-38 -133 -59 -222 -22 -89 -44 -170 -49 -180 -9 -19 -44 -176 -62 -283 -6 -36
-20 -101 -30 -145 -30 -124 -39 -318 -41 -855 -2 -556 -7 -628 -49 -715 -38
-78 -57 -152 -65 -248 -3 -42 -15 -137 -25 -210 -11 -72 -20 -167 -20 -209 0
-42 -4 -110 -10 -150 -5 -40 -13 -190 -17 -333 -8 -277 -11 -3092 -3 -3235 5
-80 3 -88 -25 -139 -18 -32 -62 -83 -108 -125 -43 -39 -86 -83 -95 -97 -9 -15
-54 -66 -99 -113 -69 -71 -91 -103 -129 -184 -25 -53 -58 -141 -74 -195 -15
-54 -35 -109 -44 -122 -9 -13 -16 -37 -16 -53 0 -15 -9 -78 -21 -140 -19 -105
-20 -143 -17 -595 l3 -482 29 -70 c15 -38 35 -92 43 -120 8 -27 20 -59 27 -70
7 -11 21 -43 30 -71 36 -111 101 -191 368 -456 193 -193 200 -199 295 -244 99
-47 114 -54 213 -97 30 -14 88 -55 129 -91 41 -37 97 -79 125 -95 154 -85 252
-144 288 -173 101 -82 341 -220 433 -249 28 -8 88 -33 134 -53 46 -21 102 -41
125 -44 22 -2 61 -15 86 -27 25 -12 61 -26 80 -29 70 -14 186 -60 217 -87 17
-15 42 -30 55 -34 13 -4 70 -30 128 -58 96 -46 114 -51 200 -57 77 -6 106 -13
155 -37 81 -41 151 -61 243 -68 57 -5 95 -15 147 -40 39 -18 88 -36 110 -39
22 -4 70 -27 106 -51 36 -24 89 -55 118 -69 62 -32 127 -88 148 -130 19 -38
305 -321 361 -358 28 -19 51 -46 71 -87 22 -42 42 -66 69 -83 79 -47 142 -100
198 -169 37 -45 77 -82 111 -101 29 -17 70 -50 90 -75 21 -25 71 -71 113 -103
41 -32 92 -76 112 -98 20 -21 52 -45 70 -52 18 -8 58 -30 88 -50 30 -21 89
-54 130 -75 41 -21 103 -63 137 -94 40 -36 87 -67 132 -86 39 -16 94 -49 122
-72 29 -22 72 -47 98 -53 77 -21 145 -66 255 -170 68 -63 116 -101 136 -105
54 -12 240 -105 297 -148 30 -23 101 -85 157 -138 73 -68 113 -99 137 -104 40
-8 146 -58 279 -131 52 -29 111 -56 131 -59 21 -4 59 -25 90 -50 29 -24 67
-50 83 -56 17 -7 60 -24 96 -40 36 -15 106 -35 155 -44 103 -19 226 -57 258
-80 12 -8 36 -15 53 -15 50 0 212 -45 303 -84 58 -25 115 -41 185 -51 55 -8
127 -23 160 -34 32 -12 106 -30 165 -41 186 -37 215 -45 251 -66 31 -19 56
-23 200 -28 338 -14 457 -26 624 -62 103 -22 235 -42 366 -54 240 -23 224 -21
410 -72 139 -38 154 -40 352 -48 263 -11 276 -15 330 -88 55 -73 71 -108 102
-230 28 -107 62 -204 121 -341 19 -46 40 -105 45 -130 6 -25 33 -92 61 -147
50 -99 52 -105 59 -217 5 -63 13 -123 18 -133 15 -30 30 -148 37 -289 9 -203
7 -697 -3 -731 -6 -17 -25 -53 -44 -80 -20 -27 -50 -77 -68 -111 -19 -37 -41
-65 -54 -69 -42 -13 -121 -7 -161 13 -37 19 -173 63 -238 77 -16 4 -68 25
-117 46 -48 22 -95 40 -104 40 -10 0 -70 24 -134 53 -64 30 -143 59 -174 66
-37 8 -93 34 -163 77 -160 97 -176 103 -308 126 -221 37 -726 23 -877 -25 -82
-25 -179 -80 -252 -141 -33 -27 -66 -44 -110 -55 -67 -17 -215 -99 -329 -183
-37 -26 -71 -48 -77 -48 -6 0 -30 -15 -54 -33 -92 -70 -140 -98 -216 -128 -81
-30 -124 -67 -239 -201 -17 -20 -46 -44 -65 -54 -54 -28 -195 -153 -391 -349
-77 -77 -155 -149 -172 -160 -82 -51 -173 -115 -186 -131 -15 -18 -165 -132
-234 -178 -22 -14 -60 -42 -85 -61 -25 -19 -65 -44 -89 -57 -24 -12 -78 -59
-120 -105 -52 -56 -91 -89 -125 -104 -27 -11 -67 -38 -90 -58 -23 -20 -67 -54
-100 -76 -32 -22 -75 -51 -95 -65 -20 -14 -55 -39 -76 -56 -22 -17 -55 -39
-73 -48 -18 -9 -41 -25 -50 -34 -31 -31 -84 -69 -237 -167 -167 -108 -206
-129 -281 -156 -83 -28 -195 -108 -289 -207 -63 -66 -102 -99 -143 -118 -31
-15 -69 -35 -84 -45 -14 -11 -39 -19 -55 -19 -80 0 -102 -15 -273 -188 -91
-92 -187 -183 -214 -202 -27 -19 -74 -58 -105 -86 -71 -64 -96 -81 -202 -136
-77 -40 -151 -96 -256 -192 -19 -16 -50 -39 -71 -51 -20 -12 -58 -37 -83 -57
-26 -19 -87 -54 -135 -77 -158 -75 -248 -123 -274 -146 -14 -12 -51 -39 -82
-59 -32 -21 -58 -42 -58 -46 0 -14 -132 -140 -175 -168 -22 -15 -65 -46 -95
-71 -30 -24 -71 -50 -90 -59 -19 -8 -55 -29 -80 -47 -25 -18 -74 -46 -110 -63
-45 -21 -92 -57 -155 -117 -93 -90 -192 -163 -282 -208 -29 -15 -68 -47 -90
-73 -21 -26 -68 -66 -104 -90 -39 -24 -81 -62 -100 -89 -19 -26 -56 -65 -84
-87 -27 -22 -90 -79 -140 -126 -49 -48 -108 -100 -130 -117 -22 -16 -46 -37
-53 -47 -25 -34 -56 -60 -104 -84 -27 -13 -62 -44 -83 -71 -19 -25 -52 -58
-73 -72 -63 -42 -175 -140 -218 -190 -23 -26 -61 -60 -84 -76 -23 -16 -112
-98 -198 -183 -87 -85 -181 -172 -209 -193 -29 -22 -53 -45 -53 -51 0 -19 -92
-120 -135 -147 -60 -39 -269 -251 -308 -313 -19 -29 -51 -72 -70 -96 -20 -24
-41 -59 -46 -77 -5 -19 -20 -49 -33 -67 -32 -46 -45 -72 -53 -110 -4 -18 -18
-49 -30 -68 -13 -20 -42 -74 -65 -120 -23 -46 -53 -100 -66 -120 -32 -48 -78
-175 -116 -320 -19 -73 -41 -131 -60 -158 -19 -28 -37 -76 -53 -145 -13 -56
-33 -141 -44 -189 -27 -110 -27 -228 1 -363 26 -128 59 -210 127 -310 66 -99
91 -126 163 -180 32 -23 97 -78 144 -121 96 -88 104 -92 154 -93 40 -1 269
-65 312 -87 15 -8 56 -20 90 -28 35 -8 86 -23 113 -34 28 -11 97 -28 155 -37
58 -8 146 -24 195 -35 50 -11 103 -20 118 -20 15 0 46 -9 69 -21 38 -20 64
-22 372 -29 182 -5 934 -9 1671 -10 737 -1 2913 -5 4835 -8 l3495 -7 110 -28
c60 -16 155 -32 210 -37 139 -12 2335 -3 2508 11 76 5 175 17 220 25 45 7 97
14 116 14 19 0 60 6 90 14 117 30 214 46 348 57 76 6 187 22 247 35 60 14 162
29 225 34 124 9 186 21 266 50 63 23 275 38 635 45 419 8 642 15 679 22 19 3
295 7 615 8 387 2 598 6 631 14 28 6 178 15 335 20 404 14 2322 14 2551 0 140
-9 223 -8 350 1 170 13 210 10 438 -30 30 -6 169 -10 308 -10 140 0 273 -5
296 -10 39 -9 336 -12 2947 -24 574 -3 598 -4 673 -24 85 -24 147 -27 228 -12
30 6 146 19 259 30 113 11 219 24 236 29 33 9 132 28 289 55 50 8 167 18 260
21 188 7 260 16 350 45 33 11 102 22 155 25 123 6 223 23 283 46 26 11 64 19
84 19 20 0 67 9 105 20 38 12 127 30 197 40 91 13 145 27 180 45 30 15 82 29
125 35 60 7 100 22 208 75 159 77 280 149 350 208 79 66 167 161 203 219 18
29 47 70 65 90 17 20 39 63 49 95 22 72 34 95 83 156 25 32 38 59 38 79 0 16
13 62 30 101 16 40 41 115 55 167 15 52 36 123 47 158 29 92 36 194 34 497
l-2 270 -41 115 c-22 63 -59 149 -82 190 -22 41 -41 83 -41 92 0 10 -40 58
-89 108 -70 70 -94 102 -110 145 -33 87 -56 127 -120 208 -32 41 -66 87 -74
103 -8 16 -24 38 -36 48 -11 10 -32 38 -46 61 -13 24 -38 51 -55 62 -45 29
-135 140 -169 208 -16 33 -52 91 -80 129 -28 38 -51 72 -51 77 0 22 -141 165
-250 254 -121 99 -287 260 -321 313 -34 52 -281 291 -370 358 -56 41 -309 288
-356 347 -26 33 -67 81 -89 106 -23 25 -49 60 -57 77 -9 17 -32 44 -52 60 -20
16 -68 59 -108 95 -40 37 -91 84 -115 105 -137 125 -331 328 -392 412 -14 18
-53 51 -87 72 -34 22 -77 52 -95 68 -18 15 -46 36 -63 47 -16 10 -50 35 -75
56 -25 20 -60 44 -77 53 -18 9 -48 33 -65 52 -18 20 -90 86 -160 146 -70 60
-158 142 -195 182 -54 59 -89 85 -168 129 -56 30 -112 58 -125 62 -38 11 -154
90 -254 173 -50 40 -113 85 -140 99 -28 14 -63 36 -78 48 -15 13 -60 33 -100
45 -73 22 -125 50 -273 145 -90 58 -121 71 -185 80 -25 4 -61 14 -80 24 -32
16 -62 25 -210 65 -30 9 -80 32 -110 51 -77 51 -205 114 -264 132 -28 8 -75
32 -105 53 -31 20 -99 54 -151 74 -123 47 -131 52 -209 109 -36 26 -84 52
-106 58 -22 6 -90 32 -152 60 -62 27 -115 49 -119 49 -18 0 -173 97 -209 131
-22 21 -66 47 -97 59 -31 11 -74 33 -95 47 -45 31 -307 167 -343 178 -14 4
-38 18 -55 31 -16 12 -43 26 -59 30 -16 4 -59 24 -95 44 -36 21 -99 49 -139
64 -40 14 -96 41 -125 59 -50 32 -191 87 -223 87 -22 0 -213 59 -249 78 -16 8
-46 27 -65 42 -19 15 -57 34 -83 43 -27 9 -70 31 -95 50 -26 18 -92 57 -147
87 -55 29 -116 63 -136 76 -20 12 -59 29 -86 37 -52 16 -111 49 -174 98 -55
44 -197 114 -276 138 -39 12 -105 37 -145 56 -40 19 -79 35 -87 35 -16 0 -247
136 -256 150 -12 19 -450 220 -481 220 -10 1 -59 23 -109 51 -143 79 -194 100
-269 109 -39 4 -91 17 -116 29 -25 11 -54 21 -66 21 -40 0 -288 62 -325 80
-21 11 -77 28 -126 39 -82 18 -128 19 -673 18 -513 -2 -589 -4 -610 -18 -14
-8 -71 -35 -127 -58 -56 -23 -155 -70 -220 -105 -128 -67 -108 -47 -255 -250
-24 -33 -65 -85 -93 -116 -27 -31 -65 -77 -82 -103 -37 -53 -70 -73 -107 -63
-29 7 -91 67 -113 110 -9 16 -32 51 -53 77 -21 26 -47 69 -59 96 -12 26 -35
73 -52 104 -16 31 -29 65 -29 75 0 11 -20 50 -45 89 l-45 69 0 516 c0 320 4
528 10 550 6 19 17 76 24 126 8 50 21 105 29 121 29 56 37 58 206 59 166 1
215 9 323 59 31 14 76 43 101 65 55 49 87 63 195 85 53 10 118 33 174 61 102
51 239 104 270 104 29 0 159 41 188 59 14 9 44 30 68 48 24 18 49 33 55 33 7
0 43 16 81 35 38 19 85 37 105 41 135 22 260 59 306 89 108 70 227 135 268
146 57 15 87 31 190 101 48 32 111 70 141 83 30 13 70 38 89 54 36 32 96 76
187 137 30 20 71 52 91 70 62 55 151 106 209 121 44 11 64 23 100 62 44 47
100 91 250 196 39 28 90 66 113 86 23 20 66 52 95 72 29 20 76 60 105 89 29
29 81 69 117 88 69 38 198 159 268 251 22 30 82 95 133 144 287 279 306 301
369 431 37 76 70 131 89 145 16 13 49 49 72 79 24 30 53 63 65 73 12 9 25 30
29 46 3 16 23 53 44 83 21 29 53 82 71 118 18 36 52 92 76 126 24 33 48 73 53
88 6 15 24 44 40 64 30 39 51 91 51 127 0 12 16 54 35 93 42 82 74 107 161
123 33 6 88 23 124 38 83 35 93 38 224 51 60 6 168 26 240 45 72 18 178 43
236 55 58 11 133 34 167 50 34 17 72 30 85 30 30 1 126 40 166 68 16 12 63 39
103 61 41 21 94 50 119 64 25 14 82 39 127 55 88 32 134 61 228 142 33 28 78
61 100 72 79 40 161 93 202 129 22 21 79 62 125 92 45 29 90 60 98 68 8 9 38
32 65 53 86 65 237 209 264 251 15 22 38 53 53 68 15 16 32 45 39 65 7 21 38
78 69 127 31 50 69 116 83 148 15 32 39 73 53 90 38 45 78 139 103 240 19 79
21 113 21 434 0 239 -5 390 -15 483 -8 74 -15 173 -15 220 0 108 -20 200 -63
298 -19 42 -40 94 -46 114 -7 20 -25 54 -41 77 -16 22 -36 56 -44 76 -9 20
-51 78 -94 128 -86 100 -122 160 -122 205 0 22 13 41 53 79 51 49 85 65 194
93 23 6 72 31 109 55 37 25 97 54 134 65 97 29 143 85 215 262 29 73 76 179
104 236 28 56 51 106 51 111 0 8 24 46 108 175 30 46 60 113 88 195 23 69 58
164 78 211 58 135 66 180 66 351 -1 288 -16 530 -34 574 -10 22 -30 135 -46
250 -29 215 -37 256 -64 335 -8 25 -20 113 -25 195 -6 83 -24 229 -40 325 -16
96 -32 211 -35 255 -8 113 -24 225 -46 330 -49 237 -51 250 -55 485 -11 525
-13 569 -40 665 -14 49 -25 102 -25 116 0 15 -11 57 -25 93 -35 94 -47 184
-50 391 -2 125 -8 197 -18 236 -9 31 -21 96 -28 145 -6 49 -18 107 -25 129
-13 36 -31 182 -50 410 -5 61 -15 98 -42 155 -55 119 -130 348 -141 435 -6 44
-13 121 -17 170 -10 153 -89 452 -141 536 -26 42 -41 88 -63 185 -15 71 -35
156 -44 190 -18 70 -31 150 -51 324 -8 69 -21 159 -30 200 -19 89 -31 175 -49
370 -12 127 -19 158 -55 253 -22 59 -41 117 -41 128 0 12 -22 63 -50 114 -28
52 -56 119 -63 156 -8 35 -31 101 -51 146 -20 45 -36 90 -36 101 0 11 -16 42
-35 68 -20 27 -41 63 -48 79 -69 171 -222 434 -317 545 -58 68 -99 128 -141
210 -32 63 -77 138 -98 165 -22 28 -48 63 -57 80 -9 16 -36 52 -60 80 -84 98
-146 181 -170 226 -13 26 -51 73 -84 105 -45 43 -72 81 -106 148 -53 107 -95
175 -150 242 -22 27 -55 72 -73 101 -32 52 -56 75 -198 193 -111 92 -225 222
-323 368 -47 69 -102 140 -123 156 -38 30 -41 31 -190 37 -172 8 -198 15 -285
83 -31 24 -72 51 -90 60 -18 9 -54 46 -80 81 -34 46 -78 86 -159 145 -87 64
-118 93 -145 136 -21 35 -48 64 -74 79 -23 14 -68 47 -100 74 -85 72 -165 116
-276 152 -91 28 -179 80 -203 119 -4 6 -40 35 -80 65 -39 29 -87 70 -106 90
-19 20 -47 43 -62 51 -15 8 -41 37 -58 64 -17 28 -34 50 -38 50 -4 0 -41 22
-83 48 -51 33 -104 56 -160 71 -46 12 -110 35 -143 51 -33 15 -85 39 -115 53
-60 27 -116 72 -199 160 -30 31 -89 78 -133 105 -43 26 -98 59 -121 73 -24 14
-59 31 -79 38 -19 6 -59 26 -89 44 -138 83 -371 197 -402 197 -6 0 -20 8 -31
18 -12 11 -48 24 -80 31 -32 7 -105 33 -162 57 -129 55 -192 71 -321 79 -119
8 -170 20 -273 65 -60 26 -94 34 -175 41 -55 4 -118 14 -140 22 -46 17 -207
42 -380 58 -66 6 -147 19 -180 30 -170 53 -205 62 -269 70 -38 5 -124 27 -190
50 -69 24 -153 45 -196 49 -118 13 -234 30 -378 56 -105 19 -169 24 -300 25
-152 0 -279 6 -612 28 -75 5 -129 14 -155 25 -104 47 -112 47 -690 52 -826 7
-1004 20 -1170 90 -19 7 -51 14 -71 14 -20 0 -89 18 -153 39 -122 41 -238 57
-571 78 -152 9 -1912 11 -2135 1z m-583 -11706 c56 -37 102 -120 117 -211 7
-46 19 -72 44 -104 42 -51 68 -102 114 -220 19 -50 47 -118 63 -151 16 -34 34
-83 41 -111 6 -27 18 -57 25 -65 7 -8 20 -33 29 -56 10 -26 32 -53 61 -75 24
-18 84 -76 132 -127 48 -52 110 -112 137 -132 35 -26 61 -57 83 -97 17 -33 39
-66 47 -73 9 -8 28 -34 43 -59 39 -68 144 -187 216 -247 35 -29 79 -71 97 -93
23 -29 46 -45 83 -57 28 -9 68 -28 89 -42 22 -15 57 -27 86 -30 43 -4 275 23
294 35 4 2 56 11 115 19 131 17 256 50 382 99 52 20 122 45 154 56 75 25 300
136 390 193 39 24 81 58 95 75 15 17 49 40 76 52 65 29 194 153 252 244 64 99
79 113 129 121 53 8 82 -8 120 -66 14 -21 42 -46 62 -56 21 -9 72 -55 116
-101 87 -93 141 -134 201 -153 22 -7 81 -33 130 -57 66 -32 107 -46 151 -50
71 -6 98 1 244 64 102 45 136 65 215 127 l37 30 76 -11 c47 -7 95 -22 122 -37
75 -43 231 -116 290 -136 30 -10 69 -25 85 -34 17 -8 88 -24 158 -36 105 -17
159 -21 305 -18 202 4 240 14 355 93 35 24 82 49 106 56 33 10 57 30 111 90
37 42 74 95 80 116 11 32 49 116 79 173 60 114 100 183 128 219 18 24 33 49
33 54 0 6 16 33 35 61 19 28 50 98 69 156 45 137 84 239 102 268 9 13 22 46
30 72 8 27 37 82 65 123 56 83 89 102 119 70 23 -24 58 -117 66 -173 4 -25 15
-63 24 -85 10 -22 37 -110 60 -195 42 -152 59 -200 86 -230 12 -14 38 -73 94
-210 10 -25 33 -81 51 -125 46 -112 107 -200 162 -235 27 -17 54 -45 65 -67
23 -43 47 -68 79 -77 12 -4 37 -24 55 -45 18 -21 84 -69 148 -106 63 -37 127
-78 141 -92 27 -25 88 -49 274 -110 61 -19 126 -44 146 -54 77 -39 308 -48
452 -17 27 5 79 27 115 48 37 20 80 40 95 44 20 5 39 25 68 69 88 137 138 130
235 -33 21 -36 57 -90 81 -120 24 -30 43 -61 43 -68 0 -47 158 -223 258 -288
28 -18 52 -38 52 -43 0 -5 44 -47 98 -94 53 -46 122 -110 152 -142 32 -33 76
-67 105 -80 28 -13 75 -43 104 -68 29 -25 65 -48 79 -52 15 -4 47 -20 71 -36
49 -32 276 -123 348 -139 25 -6 58 -17 72 -25 106 -59 380 -94 541 -70 51 7
86 -3 143 -43 49 -33 96 -123 153 -289 23 -66 63 -161 90 -210 27 -48 56 -106
66 -128 9 -22 39 -78 67 -125 54 -89 113 -254 131 -364 12 -77 12 -647 0 -826
-13 -188 -13 -744 0 -898 15 -172 37 -292 71 -385 38 -103 55 -135 98 -182 20
-22 44 -56 55 -75 29 -54 169 -161 236 -181 59 -18 115 3 152 56 17 24 51 58
76 76 59 43 100 132 112 245 7 65 17 98 49 163 23 44 41 85 41 90 0 5 18 56
40 113 27 68 52 116 75 140 60 64 173 228 196 286 12 32 37 77 54 102 55 78
101 161 160 292 46 100 66 133 97 158 57 46 157 90 233 101 38 6 102 28 151
51 101 47 118 46 233 -11 42 -21 89 -41 104 -45 51 -12 178 -121 295 -252 64
-73 83 -100 126 -184 18 -36 51 -93 74 -128 32 -49 41 -75 47 -125 3 -34 15
-114 25 -177 19 -114 23 -152 35 -365 6 -100 5 -119 -20 -210 -15 -55 -31
-122 -36 -148 -4 -27 -22 -69 -38 -94 -17 -25 -33 -65 -37 -89 -3 -25 -16 -58
-28 -74 -105 -146 -248 -293 -313 -321 -23 -10 -59 -33 -80 -52 -21 -19 -58
-43 -83 -54 -25 -11 -76 -48 -115 -83 -38 -34 -94 -80 -123 -102 -60 -44 -206
-118 -235 -118 -11 0 -47 -19 -81 -43 -63 -45 -248 -113 -371 -137 -33 -7
-100 -29 -149 -51 -65 -29 -102 -39 -140 -39 -28 0 -98 -7 -156 -15 -58 -9
-145 -16 -195 -16 -133 -1 -277 -40 -425 -115 -55 -27 -331 -301 -529 -523
-17 -20 -39 -63 -50 -101 -11 -36 -46 -106 -77 -155 -75 -121 -129 -220 -147
-275 -24 -68 -61 -140 -97 -185 -18 -22 -51 -69 -75 -105 -23 -36 -70 -96
-105 -135 -61 -69 -122 -151 -210 -285 -116 -177 -142 -211 -181 -230 -21 -11
-49 -35 -61 -54 -87 -128 -183 -223 -316 -312 -42 -29 -99 -75 -126 -104 -27
-28 -79 -67 -115 -86 -100 -52 -221 -139 -271 -194 -25 -27 -72 -64 -105 -81
-33 -18 -93 -58 -133 -88 -40 -31 -103 -72 -139 -92 -37 -19 -82 -53 -102 -75
-61 -69 -165 -130 -279 -164 -88 -26 -230 -91 -287 -131 -182 -131 -368 -221
-550 -265 -77 -18 -236 -86 -303 -128 -23 -14 -76 -34 -118 -42 -42 -9 -122
-38 -182 -66 -59 -28 -141 -61 -182 -74 -41 -12 -127 -40 -190 -62 -92 -31
-136 -40 -220 -45 -58 -4 -123 -12 -145 -18 -22 -6 -71 -15 -110 -20 -162 -22
-281 -58 -415 -125 l-52 -26 -701 1 c-678 1 -932 -6 -1064 -31 -48 -9 -244 -9
-825 1 -767 13 -800 14 -895 32 -29 6 -176 9 -335 8 -156 -1 -294 1 -308 5
-14 4 -70 27 -125 52 -113 49 -177 64 -274 64 -49 0 -78 6 -106 21 -57 30
-271 65 -485 78 -189 12 -259 20 -435 45 -55 8 -161 19 -235 26 -276 24 -327
31 -420 60 -61 19 -138 33 -215 40 -66 6 -138 15 -160 20 -22 5 -89 12 -150
16 -93 6 -114 10 -137 29 -16 14 -59 30 -105 40 -43 9 -125 35 -183 57 -95 36
-119 42 -263 54 l-158 14 -127 56 c-70 31 -152 71 -182 89 -30 18 -65 36 -77
39 -12 4 -38 20 -58 36 -21 17 -42 30 -48 30 -5 0 -44 16 -86 36 -115 54 -189
84 -206 84 -63 0 -236 98 -337 191 -32 29 -79 64 -105 78 -26 15 -70 41 -96
59 -53 37 -136 76 -182 86 -17 4 -64 36 -105 71 -114 98 -230 171 -444 277
-85 42 -197 114 -308 196 -54 40 -102 72 -108 72 -5 0 -38 27 -74 61 -64 59
-216 159 -243 159 -32 0 -83 37 -163 118 -186 189 -347 339 -378 352 -21 8
-45 30 -61 56 -29 47 -171 201 -404 437 -134 136 -150 156 -190 240 -46 96
-122 192 -165 208 -13 5 -68 16 -121 25 -139 22 -260 59 -306 94 -41 31 -79
50 -250 128 l-100 45 -177 8 c-537 26 -529 26 -613 54 -125 41 -263 75 -310
75 -75 0 -218 44 -294 89 -76 46 -142 73 -238 95 -35 8 -85 28 -112 44 -27 17
-73 41 -102 53 -30 12 -87 44 -127 71 -40 27 -103 62 -140 77 -85 35 -165 89
-200 134 -29 37 -81 91 -254 265 -73 73 -108 117 -112 138 -4 16 -27 55 -52
85 -84 101 -101 143 -120 285 -17 134 -16 242 6 579 14 214 52 336 119 386 16
12 47 51 69 88 24 39 96 123 176 206 92 94 145 157 161 191 21 44 34 57 105
98 44 26 129 67 188 91 102 41 113 43 248 50 153 8 175 3 220 -47 24 -26 49
-100 59 -173 6 -45 20 -88 75 -227 10 -26 37 -72 61 -103 37 -49 50 -81 96
-238 43 -150 58 -187 81 -208 15 -14 34 -41 42 -60 7 -18 31 -61 52 -95 20
-33 47 -92 59 -130 11 -38 38 -94 58 -124 20 -30 42 -75 50 -100 7 -25 24 -67
36 -95 13 -27 28 -66 34 -85 17 -54 69 -126 156 -218 44 -46 82 -88 83 -93 2
-5 54 -52 116 -103 62 -51 135 -114 163 -140 64 -59 187 -144 233 -161 49 -18
279 -39 346 -31 30 3 71 13 90 21 67 28 174 168 174 227 0 54 -25 141 -53 189
-51 86 -89 175 -98 229 -5 30 -9 172 -9 315 0 223 3 271 19 333 19 71 43 122
60 122 4 0 24 16 44 35 26 25 42 55 57 102 11 37 39 95 61 130 87 138 160 334
178 478 14 113 30 185 42 185 5 0 16 26 24 58 9 31 27 84 41 116 14 33 27 80
30 105 3 25 12 87 19 136 44 277 64 597 65 990 0 176 5 349 10 385 15 95 96
251 174 333 55 58 71 68 158 101 150 57 261 85 403 101 237 27 276 35 384 81
57 24 142 70 188 102 46 31 106 68 133 82 70 35 100 67 138 146 18 38 38 80
45 94 7 13 28 35 47 48 50 34 52 33 430 -60 76 -19 129 -22 485 -29 267 -6
418 -5 455 2 162 31 388 116 450 171 19 16 55 41 80 53 32 17 55 39 80 80 28
46 53 69 131 120 146 98 171 107 329 115 124 6 141 9 205 39 39 18 84 40 101
47 17 8 44 29 61 47 83 88 121 123 149 138 22 11 40 35 59 75 15 32 42 81 61
109 18 27 47 85 64 127 17 43 40 93 51 112 30 51 39 91 49 203 5 56 20 153 34
215 14 62 30 162 35 221 10 98 9 114 -9 165 -11 31 -20 78 -20 105 0 42 5 54
34 83 38 38 59 42 98 16z m2815 -12552 c26 -5 129 -14 228 -20 99 -5 259 -21
355 -35 161 -23 204 -25 535 -25 404 0 632 13 715 40 85 29 143 31 784 32 543
0 599 -1 614 -16 19 -19 19 38 8 -916 -7 -689 -5 -727 52 -818 15 -24 43 -72
62 -107 67 -122 102 -175 131 -199 73 -62 99 -148 64 -215 -17 -34 -43 -45
-155 -66 -47 -9 -106 -23 -133 -30 -26 -8 -93 -19 -150 -25 -122 -13 -230 -34
-312 -62 -42 -14 -105 -23 -210 -30 -108 -6 -162 -14 -195 -28 -77 -32 -398
-72 -725 -90 -110 -7 -245 -15 -300 -20 -76 -7 -887 -12 -1456 -10 -27 0 -46
8 -68 29 -37 34 -40 71 -12 118 11 17 24 56 30 86 5 30 32 99 60 154 36 72 56
129 76 218 15 66 28 122 30 126 2 3 5 156 5 340 2 330 2 336 -25 449 -24 101
-27 135 -26 279 0 177 -10 226 -62 294 -45 59 -58 97 -66 190 -5 51 -20 132
-35 181 -33 113 -33 128 5 160 34 29 89 34 176 16z m6298 -1769 c55 -16 134
-34 175 -39 53 -6 101 -21 162 -50 108 -50 148 -62 216 -62 43 0 62 -6 95 -29
23 -17 58 -33 78 -36 38 -7 89 -46 108 -83 7 -12 11 -44 10 -70 -1 -26 -1
-1059 0 -2297 2 -1512 6 -2294 13 -2385 6 -74 12 -146 12 -160 3 -43 -22 -114
-48 -137 -24 -20 -32 -21 -168 -17 -79 3 -304 7 -501 8 -391 4 -395 5 -419 64
-6 17 -9 135 -8 332 2 313 8 1841 11 2740 1 475 -9 773 -32 948 -5 40 -9 96
-9 124 0 29 -9 108 -19 177 -27 180 -50 371 -56 479 -3 52 -10 116 -15 143 -6
31 -6 87 0 150 8 80 14 106 32 128 30 37 55 53 98 62 19 4 58 14 85 22 70 20
69 21 180 -12z m-9138 -847 c42 -26 56 -70 50 -153 -29 -400 -47 -799 -38
-854 8 -50 3 -98 -22 -207 -14 -60 -35 -229 -34 -275 0 -11 -6 -72 -13 -135
-10 -87 -14 -384 -15 -1235 l-2 -1120 -23 -90 c-15 -60 -24 -126 -26 -200 -11
-411 -22 -623 -33 -652 -7 -17 -24 -36 -39 -42 -34 -14 -1075 -5 -1103 9 -40
22 -42 52 -39 809 1 653 11 1284 23 1601 4 94 10 133 36 211 17 53 31 107 31
120 1 13 7 42 15 64 8 22 24 94 36 159 19 111 20 163 21 675 2 511 0 560 -16
601 -30 76 -30 93 2 156 35 68 50 84 117 120 28 14 64 38 80 54 17 15 51 37
77 48 43 19 89 46 198 118 19 13 64 48 100 78 43 37 83 61 120 73 30 9 64 22
75 29 11 6 44 15 73 18 29 4 74 15 100 26 39 16 62 18 137 13 50 -3 100 -12
112 -19z m8431 -4601 c18 -25 30 -78 35 -160 6 -110 38 -155 146 -210 45 -23
101 -44 124 -47 23 -2 82 -14 130 -25 68 -16 121 -21 240 -21 84 0 229 -5 322
-10 94 -5 278 -10 410 -12 275 -3 271 -4 367 88 78 75 111 146 113 241 1 72 3
77 34 105 l32 29 132 -6 c301 -12 361 -17 398 -36 22 -11 79 -22 140 -29 57
-5 149 -17 203 -25 55 -8 113 -15 129 -15 17 0 54 -11 82 -25 29 -13 72 -27
96 -31 82 -11 287 -84 303 -107 8 -12 27 -35 41 -52 30 -33 55 -84 55 -113 0
-10 16 -51 36 -91 56 -115 58 -153 59 -1151 0 -889 -11 -2029 -21 -2107 -8
-62 -18 -66 -157 -64 -1130 13 -2595 3 -2687 -20 -30 -7 -251 -12 -650 -13
-564 -3 -679 -7 -1010 -37 -63 -5 -268 -9 -455 -8 -336 3 -605 -10 -690 -33
-22 -6 -65 -12 -95 -13 -33 -1 -71 -10 -96 -23 -93 -47 -211 -59 -246 -24 -16
16 2 53 53 107 27 28 56 69 66 91 31 69 85 124 186 191 91 60 100 69 131 131
19 37 61 98 95 136 33 38 65 84 70 103 5 19 26 52 45 74 l36 39 0 233 c-1 127
-5 278 -10 334 -14 152 -54 338 -84 387 -8 12 -19 43 -25 71 -8 32 -25 63 -50
90 -28 31 -47 67 -70 138 -30 90 -35 97 -79 126 -26 17 -74 58 -107 92 -41 41
-84 72 -135 96 -41 20 -94 51 -118 70 -34 26 -53 33 -88 33 -52 0 -143 29
-210 66 -64 36 -283 103 -372 114 -40 5 -77 12 -81 15 -19 11 -299 5 -451 -10
-208 -20 -331 -55 -445 -127 -58 -37 -95 -52 -135 -58 -30 -5 -67 -13 -81 -18
-43 -17 -176 -110 -199 -140 -55 -70 -100 -69 -181 3 -69 61 -113 80 -144 60
-11 -7 -38 -38 -60 -68 -22 -31 -67 -80 -99 -109 -43 -38 -68 -72 -93 -123
-18 -38 -33 -76 -33 -85 0 -8 -11 -31 -24 -51 -14 -20 -36 -83 -50 -140 -14
-57 -40 -133 -57 -168 -28 -57 -34 -84 -48 -220 -14 -131 -14 -174 -4 -271 6
-63 12 -176 13 -250 1 -125 2 -138 25 -175 14 -22 25 -47 25 -55 0 -25 68
-171 89 -194 11 -12 32 -57 46 -99 14 -43 34 -95 44 -115 21 -41 232 -262 249
-262 33 0 142 -131 142 -171 0 -43 0 -43 -908 -35 -317 3 -633 9 -702 15 -77
6 -906 10 -2175 11 -1796 0 -2052 2 -2065 15 -12 13 -14 70 -15 368 0 299 -3
361 -17 412 -16 57 -31 121 -48 210 -4 22 -11 105 -14 185 -8 164 -23 295 -38
323 -5 10 -17 26 -27 36 -13 13 -20 42 -24 102 -30 370 -35 408 -56 445 -12
20 -24 55 -26 78 -26 272 -30 373 -29 836 0 533 3 568 46 607 13 11 57 32 99
47 49 18 90 41 116 65 42 40 127 72 226 86 31 5 68 21 105 46 61 42 119 52
141 25 20 -24 41 -183 41 -311 0 -171 38 -297 90 -303 14 -2 49 -12 79 -23 51
-19 89 -20 755 -25 683 -5 702 -4 755 15 70 26 86 42 102 99 7 26 30 83 51
127 l38 80 -1 195 c0 107 0 206 0 219 -2 60 41 91 125 91 83 0 265 20 330 36
41 10 163 17 395 24 185 6 406 14 491 18 170 9 6563 8 6577 -1 13 -8 110 17
163 42 50 24 97 21 118 -6z m-3273 -1703 c39 -6 93 -13 120 -16 28 -3 81 -17
119 -31 47 -18 100 -28 162 -32 104 -7 122 -18 169 -97 31 -53 31 -67 1 -119
-14 -23 -30 -64 -37 -91 -32 -136 -63 -231 -82 -251 -29 -32 -86 -31 -116 1
-12 13 -30 51 -40 84 -11 34 -29 75 -40 91 -12 17 -35 60 -51 95 -24 53 -41
73 -87 108 -98 72 -252 100 -320 59 -31 -19 -93 -91 -139 -161 -23 -36 -48
-163 -48 -245 0 -165 73 -305 159 -305 59 0 91 59 101 180 2 37 3 37 20 55 21
20 62 12 84 -17 8 -11 33 -64 55 -116 36 -87 44 -98 84 -121 68 -40 86 -71 86
-148 0 -61 -2 -66 -32 -91 -76 -63 -101 -80 -145 -101 -26 -12 -67 -44 -90
-70 -71 -79 -178 -149 -259 -172 -40 -11 -101 -34 -136 -51 l-64 -31 -243 0
-242 0 -70 34 c-38 19 -75 40 -82 47 -7 6 -38 12 -69 12 -73 0 -201 33 -288
75 -56 27 -75 42 -93 74 -13 23 -43 57 -67 77 -52 44 -63 80 -66 214 -3 130
31 229 83 246 13 3 37 16 53 28 17 11 51 31 77 43 43 20 72 46 198 180 25 26
107 107 183 180 128 124 140 132 184 138 65 8 120 35 179 86 64 55 137 89 194
89 30 0 66 10 105 30 33 16 76 30 95 30 19 1 44 5 55 10 27 12 254 12 340 0z
m-12527 -207 c25 -14 36 -15 68 -5 22 6 99 14 172 17 114 5 137 4 158 -10 17
-11 24 -24 22 -37 -2 -18 -15 -24 -78 -38 -134 -28 -172 -68 -135 -139 19 -38
28 -38 67 -6 48 40 82 31 98 -26 30 -105 -15 -187 -89 -161 -24 9 -37 7 -68
-9 -44 -22 -65 -20 -148 15 -33 14 -69 26 -79 26 -34 0 -43 26 -34 96 8 60 7
66 -22 117 -32 58 -42 141 -18 165 17 17 51 15 86 -5z m13517 -359 c14 -15 29
-43 35 -63 12 -45 32 -207 36 -286 1 -33 5 -94 9 -136 7 -68 4 -87 -20 -168
-25 -81 -35 -98 -84 -149 -31 -32 -81 -102 -111 -156 -66 -116 -84 -138 -138
-169 -23 -13 -58 -45 -78 -71 -28 -36 -53 -55 -108 -80 -39 -18 -88 -47 -107
-64 -19 -17 -61 -42 -92 -56 -31 -14 -57 -29 -57 -34 0 -21 -59 -72 -83 -72
-13 0 -49 -13 -80 -30 -30 -16 -82 -34 -116 -39 -33 -5 -122 -31 -198 -58
l-138 -47 -254 1 -255 1 -151 75 c-153 77 -220 128 -213 165 2 9 17 24 35 34
30 18 35 18 112 3 67 -14 134 -16 403 -13 l323 4 120 43 c66 23 158 51 205 61
47 10 97 22 111 28 15 6 68 51 118 101 50 50 116 110 147 133 32 24 64 59 76
82 35 70 58 96 108 121 37 19 55 36 80 82 18 32 45 72 60 89 28 33 110 185
110 205 0 6 13 43 29 82 23 60 29 92 34 192 3 66 10 133 17 150 26 69 73 84
115 39z m-13874 -132 c78 -80 113 -125 138 -177 42 -86 44 -120 7 -152 -50
-43 -107 -25 -147 46 -29 52 -54 62 -143 55 l-73 -7 -56 58 c-74 77 -85 104
-62 155 23 52 62 87 121 110 92 36 99 33 215 -88z m-659 -339 c27 -26 35 -27
117 -28 73 0 93 -3 110 -19 34 -31 26 -60 -24 -102 -57 -46 -56 -68 5 -104 63
-37 77 -64 57 -112 -14 -32 -21 -37 -60 -43 -34 -5 -53 -2 -85 14 -54 27 -81
26 -122 -4 -82 -61 -136 -10 -180 171 l-22 91 20 45 c15 34 35 56 73 82 30 20
60 36 68 36 8 0 28 -12 43 -27z m-442 -408 c27 -14 64 -41 81 -60 18 -19 41
-35 51 -35 38 0 58 -19 58 -56 0 -19 6 -47 14 -62 8 -15 17 -44 21 -65 9 -49
-11 -80 -74 -111 -27 -14 -61 -40 -76 -58 -39 -47 -75 -68 -115 -68 -62 0
-103 18 -149 67 -24 26 -53 52 -64 58 -12 6 -32 26 -45 45 -21 30 -23 44 -19
96 7 92 35 147 90 174 25 12 67 40 94 60 26 21 56 39 66 39 10 1 40 -10 67
-24z"/>
<path d="M25395 27278 c-27 -4 -84 -19 -125 -33 -46 -16 -117 -30 -184 -36
-60 -6 -118 -17 -130 -24 -12 -8 -53 -27 -93 -44 -156 -64 -278 -155 -271
-202 3 -26 56 -58 98 -59 14 0 59 -10 100 -21 67 -19 116 -22 445 -29 204 -5
678 -9 1055 -9 731 -1 751 -2 911 -53 118 -38 294 -12 443 65 86 45 116 79
116 137 0 39 -27 99 -50 112 -88 48 -246 111 -295 119 -33 4 -109 15 -170 24
-60 9 -141 25 -178 36 -65 19 -101 20 -845 22 -427 1 -799 -1 -827 -5z"/>
<path d="M16882 27085 c-23 -7 -48 -17 -55 -23 -18 -15 -131 -39 -237 -52
-133 -16 -288 -37 -403 -55 -53 -8 -134 -17 -180 -21 -106 -7 -218 -31 -282
-60 -29 -12 -87 -34 -130 -49 -43 -15 -99 -39 -124 -54 -25 -15 -68 -35 -95
-44 -61 -21 -160 -85 -206 -133 -19 -20 -59 -51 -88 -70 -63 -41 -93 -97 -95
-177 -1 -61 31 -128 70 -146 13 -6 55 -11 93 -11 73 0 185 34 305 91 56 27
287 79 350 79 14 0 44 8 67 18 49 21 261 94 356 122 38 12 124 23 225 29 148
10 275 32 352 61 90 34 153 42 460 56 176 8 356 18 400 21 44 3 213 0 376 -7
390 -17 402 -13 359 114 -29 89 -60 114 -165 136 -33 7 -70 19 -83 27 -44 27
-189 75 -312 104 -69 16 -150 36 -180 44 -75 21 -712 21 -778 0z"/>
<path d="M25795 25930 c-67 -5 -117 -14 -149 -29 -72 -31 -173 -105 -247 -180
-104 -106 -213 -198 -251 -214 -19 -8 -48 -32 -64 -53 -16 -22 -41 -54 -56
-72 -15 -17 -35 -58 -44 -90 -9 -31 -30 -72 -45 -90 -44 -49 -74 -116 -93
-203 -3 -14 -18 -42 -34 -61 -26 -33 -29 -47 -46 -214 -19 -180 -19 -192 3
-494 9 -118 25 -189 58 -254 8 -16 21 -50 29 -75 7 -26 29 -69 49 -96 19 -28
35 -55 35 -62 0 -6 20 -41 44 -77 25 -35 54 -82 65 -103 10 -21 46 -69 78
-106 32 -38 77 -96 101 -129 24 -34 54 -69 67 -80 13 -10 41 -53 62 -95 21
-42 63 -103 93 -136 30 -32 59 -66 63 -73 13 -23 252 -132 335 -153 143 -37
493 -58 672 -42 171 16 242 50 394 188 26 24 62 51 80 60 61 31 175 125 197
161 31 52 67 89 99 102 16 7 44 36 64 65 19 29 49 69 66 89 36 40 156 272 170
326 5 19 15 53 24 76 8 22 20 97 27 166 13 140 1 312 -28 377 -25 57 -69 251
-98 429 -9 57 -27 127 -40 155 -28 60 -23 102 20 187 13 26 31 79 40 117 15
65 51 138 96 194 11 14 23 44 26 66 4 34 2 43 -15 52 -14 8 -29 8 -47 1 -34
-13 -145 -88 -145 -99 0 -4 -11 -13 -25 -19 -59 -27 -96 -3 -75 48 7 17 21 35
30 40 24 13 52 74 44 97 -12 32 -36 53 -62 53 -19 0 -46 -21 -102 -80 -98
-103 -103 -103 -212 -8 -46 40 -85 75 -88 78 -12 12 -88 67 -130 94 -25 16
-58 40 -74 53 -67 56 -141 83 -269 97 -150 17 -556 27 -692 16z m181 -381 c25
-12 63 -43 86 -70 41 -49 67 -62 147 -74 72 -12 102 -30 178 -107 90 -92 103
-121 103 -240 0 -107 -1 -109 -97 -210 -56 -59 -63 -71 -63 -106 0 -55 -26
-173 -47 -219 -28 -58 -80 -83 -178 -83 -68 0 -86 4 -120 25 -49 30 -99 32
-144 4 -62 -38 -144 -52 -222 -39 -127 22 -162 76 -157 249 l3 106 -54 95
c-50 88 -53 97 -48 146 12 116 73 194 186 240 68 28 89 51 126 140 37 89 48
101 120 135 72 35 119 36 181 8z"/>
<path d="M16879 25745 c-171 -46 -225 -68 -287 -115 -29 -22 -92 -62 -140 -88
-105 -57 -169 -101 -238 -164 -58 -55 -91 -61 -149 -28 -80 45 -97 11 -45 -87
47 -88 39 -153 -20 -153 -61 1 -107 35 -163 122 -71 111 -121 142 -161 102
-32 -31 -9 -142 45 -219 16 -22 33 -63 39 -92 7 -29 32 -92 58 -140 l47 -88 5
-436 5 -435 47 -81 c26 -45 50 -94 54 -110 4 -15 19 -57 34 -93 15 -36 36 -87
45 -114 10 -26 38 -71 62 -99 25 -28 52 -66 60 -84 7 -19 38 -60 68 -93 30
-32 63 -76 74 -97 31 -60 104 -136 156 -163 27 -14 59 -41 75 -65 29 -43 96
-102 140 -125 14 -7 66 -37 116 -66 86 -51 95 -54 195 -65 57 -6 139 -22 182
-36 82 -27 79 -27 287 -7 37 4 76 14 90 24 14 10 48 21 75 25 32 5 85 26 145
60 52 28 111 57 131 64 20 6 45 21 55 32 11 12 46 33 80 49 33 15 81 47 106
71 26 24 75 69 110 100 49 45 72 75 106 142 23 47 49 108 57 134 8 27 30 67
49 89 59 69 80 144 96 339 12 156 -7 557 -31 628 -10 31 -19 74 -19 95 0 22
-14 67 -35 112 -20 40 -44 103 -54 139 -31 110 -56 165 -102 226 -73 97 -98
134 -123 183 -13 26 -44 66 -68 88 -23 22 -61 63 -83 90 -60 75 -203 206 -260
239 -27 16 -70 44 -94 62 -138 104 -365 164 -611 162 -64 0 -116 -9 -211 -34z
m631 -619 c53 -50 100 -87 118 -90 16 -4 59 -25 97 -47 37 -21 78 -42 92 -45
13 -4 29 -16 35 -28 6 -11 30 -47 53 -78 50 -66 62 -127 46 -227 -9 -54 -17
-69 -58 -115 -55 -60 -89 -144 -96 -241 -7 -78 -37 -146 -79 -176 -49 -35
-176 -40 -260 -9 -70 26 -115 23 -203 -10 -50 -19 -72 -21 -133 -16 -94 8
-124 24 -152 82 -21 42 -22 56 -17 148 8 119 4 127 -87 202 l-58 48 5 76 c7
103 22 145 65 188 34 34 117 80 198 111 45 18 90 69 101 117 13 54 78 151 117
175 19 12 50 19 79 19 46 0 51 -3 137 -84z"/>
<path d="M20935 22984 c-122 -14 -208 -52 -239 -105 -10 -17 -21 -59 -24 -94
l-5 -63 54 -57 c30 -32 72 -66 94 -77 22 -12 64 -47 94 -80 31 -33 82 -75 116
-95 33 -19 80 -52 105 -73 25 -20 56 -43 70 -50 45 -23 135 -99 155 -130 38
-59 216 -163 297 -173 26 -4 87 -22 137 -41 166 -65 309 -69 456 -11 33 14 91
31 129 40 38 9 117 36 175 61 91 38 116 53 176 112 109 106 235 215 290 252
28 18 64 45 80 58 17 14 53 35 81 48 116 51 204 218 161 304 -15 30 -106 82
-202 115 -57 20 -91 25 -167 25 -93 0 -98 -1 -189 -46 -141 -68 -237 -124
-304 -177 -33 -26 -66 -47 -73 -47 -8 0 -67 -53 -133 -117 -125 -124 -165
-153 -212 -153 -41 0 -104 36 -167 95 -70 66 -158 133 -290 221 -187 125 -274
184 -315 214 -58 43 -201 61 -350 44z"/>
<path d="M27267 11088 c-41 -11 -64 -37 -115 -128 -42 -76 -65 -170 -60 -251
3 -59 8 -71 50 -130 75 -105 89 -114 166 -114 112 0 149 41 187 206 17 71 17
81 1 158 -9 45 -16 91 -16 103 0 35 -21 95 -44 120 -41 48 -87 58 -169 36z"/>
<path d="M17193 10775 c-12 -8 -27 -33 -32 -53 -6 -21 -26 -62 -44 -93 -32
-53 -67 -154 -67 -193 0 -10 11 -44 24 -75 13 -31 34 -81 45 -111 17 -44 31
-61 69 -87 59 -39 115 -57 156 -50 39 6 171 89 190 120 41 64 61 287 33 367
-18 49 -93 157 -119 171 -12 6 -69 14 -127 16 -87 4 -110 2 -128 -12z"/>
<path d="M21978 7691 c-43 -9 -82 -33 -102 -64 -33 -50 -66 -211 -70 -338 -2
-68 1 -134 5 -147 5 -13 32 -45 61 -73 39 -37 58 -49 82 -49 39 0 107 31 158
72 36 28 48 32 102 32 47 0 73 -7 111 -27 72 -39 110 -36 187 16 34 23 65 51
66 61 3 16 -29 131 -59 213 -5 12 -26 31 -48 43 -22 11 -77 56 -123 101 -95
93 -137 120 -228 148 -69 22 -83 23 -142 12z"/>
<path d="M8981 6686 c-9 -11 -11 -30 -6 -63 10 -68 29 -99 80 -128 40 -24 48
-25 79 -15 39 13 67 61 69 116 1 44 -15 59 -88 79 -97 27 -120 29 -134 11z"/>
</g>
</svg>
